<svg xmlns="http://www.w3.org/2000/svg" xmlns:xlink="http://www.w3.org/1999/xlink" version="1.1" x="0px" y="0px" viewBox="0 -40 512 640" style="enable-background:new 0 0 512 512;" xml:space="preserve"><title>Cry-Emoji-Emotion-Face-Expression-Feeling_1</title>
<g>
<path fill="#666" d="M501,198.3c5-8.5,12.7-25.2,9.1-42.9c-2.3-11.3-8.7-20.9-18.9-28.8c7.8-14.5,13.3-37.9-1.8-60.9c-21.8-33.2-63-49-105-40.2   c-19,4-36.2,12.7-49.6,25.1C323,61.3,314.6,74.7,310,89.6c-17.6-5.9-35.7-8.9-54-8.9c-18.3,0-36.4,3-54,8.9   c-4.6-14.9-13-28.3-24.7-39.1c-13.4-12.4-30.6-21.1-49.6-25.1c-42-8.8-83.2,7-105,40.2c-15.1,23-9.6,46.4-1.8,60.9   C10.6,134.4,4.2,144,1.9,155.3c-3.7,17.8,4.1,34.5,9.1,42.9c-12.2,23-14.3,46.4-5.9,66.5c6.2,14.8,17.9,26.8,31.7,33   c-5.3,27.3-5.7,53.3-0.7,75.6c9,40,34.2,70.1,75,89.6c36.3,17.3,85,26.1,144.9,26.1c59.9,0,108.6-8.8,144.9-26.1   c40.7-19.5,65.9-49.6,75-89.6c5-22.3,4.6-48.3-0.7-75.6c13.8-6.2,25.5-18.2,31.7-33C515.3,244.7,513.2,221.3,501,198.3z M488.4,257   c-3.7,8.8-10.3,16.2-18,20.7c-7.2-26.3-18.8-53.3-34.1-78.8c-1.8-3-4.9-4.7-8.1-4.8c-1.9-0.1-3.9,0.3-5.7,1.4   c-4.7,2.8-6.3,9-3.4,13.7c3.9,6.4,7.5,13,10.9,19.6c0.1,0.3,0.3,0.5,0.4,0.8c0.2,0.3,0.3,0.6,0.5,0.9   c24,48.3,33.9,100.6,25.4,138.3c-7.6,33.7-29.2,59.2-64.1,75.9c-2.9,1.4-5.9,2.7-9,4V255.5h3.8c5.5,0,10-4.5,10-10   c0-5.5-4.5-10-10-10h-61c-5.5,0-10,4.5-10,10c0,5.5,4.5,10,10,10h3.8v208c-22,3.7-46.6,5.5-73.8,5.5c-28.4,0-54-2-76.7-6V255.5h3.8   c5.5,0,10-4.5,10-10c0-5.5-4.5-10-10-10h-61c-5.5,0-10,4.5-10,10c0,5.5,4.5,10,10,10h3.8v192.1c-2.1-0.9-4.1-1.8-6.1-2.8   c-34.9-16.7-56.5-42.2-64.1-75.9c-7.6-33.8-0.4-79.4,18.4-123.2c0-0.1,0.1-0.1,0.1-0.2c0.2-0.5,0.4-1,0.7-1.5   c5.2-11.9,11.2-23.5,17.9-34.7c2.8-4.7,1.3-10.9-3.4-13.7c-1.8-1.1-3.7-1.5-5.7-1.4c-3.2,0.2-6.3,1.9-8.1,4.8   c-15.3,25.4-26.8,52.4-34.1,78.7c-7.7-4.5-14.3-12-18-20.7c-4.6-11.1-7.1-29.4,7.7-54c2.1-3.5,1.9-8-0.6-11.2   c-0.1-0.2-12.4-16.7-9.1-32.4c1.7-8.5,7.7-15.4,18.1-21.3c2.6-1.5,4.4-4,5-6.9c0.5-2.9-0.3-5.9-2.2-8.2c-0.8-0.9-18.5-22.8-3-46.4   C48.2,63,61.1,53,76.6,47.6c14.7-5.1,30.9-6,46.9-2.7c23.9,5,51.2,21.3,59.8,52c-16.3,7.5-32,17.5-46.7,29.8   c-0.1,0.1-0.2,0.2-0.3,0.3c-0.9,0.8-1.9,1.6-2.8,2.4c-0.3,0.3-0.6,0.5-0.9,0.8c-0.5,0.4-0.9,0.8-1.4,1.2c-0.7,0.6-1.3,1.2-2,1.8   c-4.1,3.7-4.4,10-0.7,14.1c0.7,0.7,1.4,1.3,2.2,1.8c0.1,0,0.1,0.1,0.2,0.1c0.2,0.1,0.4,0.2,0.6,0.3c0.1,0,0.2,0.1,0.3,0.1   c0.2,0.1,0.4,0.2,0.6,0.2c0.1,0,0.2,0.1,0.4,0.1c0.2,0.1,0.4,0.1,0.5,0.2c0.1,0,0.3,0.1,0.4,0.1c0.2,0,0.3,0.1,0.5,0.1   c0.2,0,0.3,0.1,0.5,0.1c0.2,0,0.3,0,0.5,0c0.2,0,0.4,0,0.5,0c0.1,0,0.2,0,0.2,0c0.1,0,0.2,0,0.2,0c0.1,0,0.3,0,0.4,0   c0.2,0,0.3,0,0.5,0c0.2,0,0.3,0,0.5-0.1c0.1,0,0.3-0.1,0.4-0.1c0.2,0,0.3-0.1,0.5-0.1c0.1,0,0.2-0.1,0.4-0.1   c0.2-0.1,0.4-0.1,0.6-0.2c0.1,0,0.2-0.1,0.3-0.1c0.2-0.1,0.4-0.2,0.6-0.3c0.1,0,0.1-0.1,0.2-0.1c0.8-0.4,1.5-0.9,2.2-1.5   c1.1-1,2.2-1.9,3.3-2.9c33.6-29.1,71.6-44.5,110.1-44.5c38.5,0,76.5,15.4,110.1,44.5c1.1,0.9,2.2,1.9,3.3,2.9   c1.8,1.6,4,2.5,6.3,2.6c0.1,0,0.2,0,0.3,0c0.2,0,0.4,0,0.7,0c2.6-0.1,5.1-1.2,6.9-3.3c3.7-4.1,3.4-10.4-0.7-14.1   c-0.6-0.6-1.3-1.1-1.9-1.7c-0.5-0.4-1-0.9-1.5-1.3c-0.3-0.2-0.6-0.5-0.8-0.7c-1-0.8-1.9-1.7-2.9-2.5c-0.1-0.1-0.2-0.1-0.3-0.2   c-14.8-12.3-30.4-22.3-46.8-29.8c8.6-30.8,35.9-47,59.8-52c16-3.4,32.3-2.4,46.9,2.7c15.5,5.4,28.4,15.4,37.3,28.9   c15.4,23.6-2.3,45.5-3,46.4c-1.9,2.3-2.7,5.3-2.2,8.2s2.4,5.5,5,6.9c10.4,5.8,16.3,12.7,18.1,21.2c3.3,15.8-9,32.4-9.1,32.5   c-2.5,3.3-2.8,7.7-0.6,11.2C495.5,227.6,493.1,246,488.4,257z"/><path d="M284.6,237.7c-7.6-8.8-17.6-13.4-29.1-13.4c-11.4,0-21.5,4.6-29.1,13.4c-7.8,9-12.9,22-15.3,38.8   c-1.7,12-1.9,25.3-0.4,35.6c1.7,11.9,7.1,20.8,15.8,26.3c5.3,3.3,11.6,5.3,19.4,6.2v10c-13.1,4.8-22.5,18.9-22.5,35.4   c0,20.5,14.6,37.2,32.5,37.2c17.9,0,32.5-16.7,32.5-37.2c0-16.5-9.5-30.6-22.5-35.4v-10c12.9-1.5,30.7-7.7,34.3-32.5   c1.5-10.3,1.4-23.6-0.3-35.6C297.5,259.7,292.4,246.7,284.6,237.7z"/>
</g></svg>
